<svg class="svg" xmlns="http://www.w3.org/2000/svg" xmlns:xlink="http://www.w3.org/1999/xlink" width="10" height="10"><path d="M5 0.5C2.516 0.5 0.5 2.516 0.5 5C0.5 7.484 2.516 9.5 5 9.5C7.484 9.5 9.5 7.484 9.5 5C9.5 2.516 7.484 0.5 5 0.5ZM4.55 8.5685C2.7725 8.348 1.4 6.836 1.4 5C1.4 4.721 1.436 4.4555 1.4945 4.1945L3.65 6.35V6.8C3.65 7.295 4.055 7.7 4.55 7.7V8.5685ZM7.655 7.4255C7.538 7.061 7.205 6.8 6.8 6.8H6.35V5.45C6.35 5.2025 6.1475 5 5.9 5H3.2V4.1H4.1C4.3475 4.1 4.55 3.8975 4.55 3.65V2.75H5.45C5.945 2.75 6.35 2.345 6.35 1.85V1.6655C7.6685 2.201 8.6 3.4925 8.6 5C8.6 5.936 8.24 6.7865 7.655 7.4255Z" fill="none" stroke-width="1" stroke="#B3B3B3"></path></svg>